# xmcd
#
# Track frame offsets:
#	150
#	16040
#	29624
#	45357
#	64593
#	78728
#	92627
#	108201
#	121721
#	136835
#	151530
#	165183
#
# Disc length: 2469 seconds
#
# Revision: 0
# Processed by: cddbd v1.4PL0 Copyright (c) Steve Scherf et al.
# Submitted via: EasyCDDAExtractor 4.6.0.1
#
DISCID=7909a30c
DTITLE=BANDA ARAPE - EL RELOJ DE MI CORAZON
DYEAR=1998
DGENRE=LATIN
TTITLE0=CALZONES DE BOLITAS
TTITLE1=MUEVELO BIEN
TTITLE2=EL PASADISCOS
TTITLE3=EL RELOJ DE MI CORAZON
TTITLE4=VAS A LLORAR
TTITLE5=UN, DOS, TRES
TTITLE6=BAMBA ZARAPE
TTITLE7=TODAS A BAILAR
TTITLE8=EL SUEGRO
TTITLE9=UNA LAGRIMA RODO
TTITLE10=CONDENADO
TTITLE11=BAILANDO DE CACHE
EXTD=
EXTT0=
EXTT1=
EXTT2=
EXTT3=
EXTT4=
EXTT5=
EXTT6=
EXTT7=
EXTT8=
EXTT9=
EXTT10=
EXTT11=
PLAYORDER=
